<svg width="151" height="43" viewBox="0 0 151 43" fill="none" xmlns="http://www.w3.org/2000/svg">
<path d="M18.2101 8.23299C18.4029 8.64597 18.7805 8.89505 19.0874 9.20358C22.9586 13.0859 26.8377 16.9587 30.7136 20.8346C32.3688 22.4881 34.0223 24.1433 35.6791 25.7968C36.0422 26.16 36.0487 26.2114 35.6935 26.5665C34.2521 28.0128 32.8091 29.459 31.366 30.9021C30.9965 31.2717 30.9675 31.27 30.6044 30.9085C26.5533 26.859 22.5038 22.8095 18.4543 18.76C18.0156 18.323 18.0156 18.3213 17.585 18.752C13.5548 22.7822 9.52456 26.8124 5.49275 30.8426C5.02031 31.315 4.99621 31.315 4.52377 30.841C3.1177 29.4349 1.71163 28.0289 0.303949 26.6228C-0.0977851 26.2211 -0.0993922 26.1809 0.28788 25.7936C6.04232 20.0424 11.7968 14.2911 17.5496 8.5367C17.6412 8.44511 17.7714 8.37761 17.789 8.22656C17.9304 8.23138 18.0702 8.23138 18.2101 8.23299Z" fill="white"/>
<path d="M17.9401 42.7841C16.1146 42.6796 14.2811 42.5623 12.4621 42.2056C11.2295 41.9645 10.0179 41.6576 8.83198 41.2671C7.27807 40.7561 5.77237 40.1133 4.33256 39.3243C2.90399 38.5417 1.54131 37.6595 0.252543 36.6632C-0.0415267 36.4367 -0.0752725 36.284 0.201121 36.0108C1.76146 34.4682 3.31055 32.9126 4.85321 31.3523C4.99783 31.2045 5.083 31.2286 5.21477 31.333C6.3814 32.2554 7.68142 32.9657 9.0216 33.5908C10.0934 34.0905 11.2151 34.4762 12.3656 34.7831C14.3647 35.3166 16.3958 35.601 18.4591 35.5464C19.899 35.5078 21.3275 35.3214 22.7416 34.9984C24.1252 34.6819 25.459 34.24 26.7558 33.6743C28.1522 33.0653 29.4635 32.3068 30.6831 31.3957C30.9017 31.2318 31.035 31.2366 31.2247 31.4262C32.7496 32.9609 34.2762 34.4939 35.8189 36.0108C36.0856 36.2727 36.0455 36.419 35.7787 36.6263C34.3228 37.7608 32.7737 38.7442 31.1347 39.5895C29.6756 40.3431 28.157 40.957 26.5935 41.4487C25.5907 41.7637 24.5639 41.9967 23.5306 42.2072C21.6891 42.5816 19.825 42.6844 17.9401 42.7841Z" fill="white"/>
<path d="M18.2101 8.23236C18.0703 8.23236 17.9305 8.23076 17.7907 8.23076C16.6658 8.22594 15.5426 8.22111 14.4177 8.21629C13.8778 8.21147 13.8682 8.20344 13.8682 7.6844C13.8682 5.30292 13.8682 2.91983 13.8682 0.538347C13.8682 0.0273406 13.8858 0.00966441 14.376 0.00805747C16.7992 0.00645053 19.2225 0.0112712 21.6441 2.2596e-05C21.9671 -0.00158434 22.0876 0.0819766 22.086 0.424254C22.0732 2.88608 22.0748 5.34952 22.0844 7.81135C22.086 8.13595 21.9671 8.22272 21.6618 8.22111C20.5129 8.21308 19.3607 8.22593 18.2101 8.23236Z" fill="white"/>
<path d="M52.52 33.7852V13.7932H65.148V17.2932H56.748V21.4652H58.428C60.3133 21.4652 61.8533 21.7265 63.048 22.2492C64.2613 22.7718 65.1573 23.4905 65.736 24.4052C66.3147 25.3198 66.604 26.3652 66.604 27.5412C66.604 28.8478 66.3147 29.9678 65.736 30.9012C65.1573 31.8345 64.2613 32.5532 63.048 33.0572C61.8347 33.5425 60.2667 33.7852 58.344 33.7852H52.52ZM58.176 30.3132C59.464 30.3132 60.472 30.1078 61.2 29.6972C61.9467 29.2865 62.32 28.5678 62.32 27.5412C62.32 26.8318 62.1333 26.2905 61.76 25.9172C61.4053 25.5438 60.892 25.2918 60.22 25.1612C59.5667 25.0118 58.7733 24.9372 57.84 24.9372H56.748V30.3132H58.176ZM74.2715 24.5452C74.2715 24.8625 74.2528 25.2545 74.2155 25.7212C74.1968 26.1878 74.1688 26.6638 74.1315 27.1492C74.1128 27.6345 74.0848 28.0638 74.0475 28.4372C74.0101 28.8105 73.9821 29.0718 73.9635 29.2212L81.0195 18.4972H86.0315V33.7852H81.9995V27.6812C81.9995 27.1772 82.0181 26.6265 82.0555 26.0292C82.0928 25.4132 82.1301 24.8438 82.1675 24.3212C82.2235 23.7798 82.2608 23.3692 82.2795 23.0892L75.2515 33.7852H70.2395V18.4972H74.2715V24.5452ZM104.284 33.7852H100.112V21.6332H96.2758C96.0891 23.8732 95.8558 25.7865 95.5758 27.3732C95.3145 28.9412 94.9785 30.2198 94.5678 31.2092C94.1758 32.1985 93.6718 32.9265 93.0558 33.3932C92.4398 33.8412 91.6838 34.0652 90.7878 34.0652C90.3025 34.0652 89.8638 34.0278 89.4718 33.9532C89.0798 33.8785 88.7251 33.7665 88.4078 33.6172V30.2852C88.6131 30.3598 88.8278 30.4252 89.0518 30.4812C89.2758 30.5372 89.5091 30.5652 89.7518 30.5652C90.0131 30.5652 90.2558 30.4625 90.4798 30.2572C90.7225 30.0518 90.9465 29.6878 91.1518 29.1652C91.3758 28.6425 91.5811 27.9238 91.7678 27.0092C91.9545 26.0945 92.1225 24.9465 92.2718 23.5652C92.4398 22.1652 92.5891 20.4758 92.7198 18.4972H104.284V33.7852ZM112.871 24.5452C112.871 24.8625 112.852 25.2545 112.815 25.7212C112.796 26.1878 112.768 26.6638 112.731 27.1492C112.712 27.6345 112.684 28.0638 112.647 28.4372C112.609 28.8105 112.581 29.0718 112.563 29.2212L119.619 18.4972H124.631V33.7852H120.599V27.6812C120.599 27.1772 120.617 26.6265 120.655 26.0292C120.692 25.4132 120.729 24.8438 120.767 24.3212C120.823 23.7798 120.86 23.3692 120.879 23.0892L113.851 33.7852H108.839V18.4972H112.871V24.5452ZM148.455 18.4972V33.7852H144.563V26.2812C144.563 25.5345 144.572 24.8065 144.591 24.0972C144.628 23.3878 144.675 22.7345 144.731 22.1372H144.647L140.419 33.7852H137.283L132.999 22.1092H132.887C132.962 22.7252 133.008 23.3878 133.027 24.0972C133.064 24.7878 133.083 25.5532 133.083 26.3932V33.7852H129.191V18.4972H135.099L138.907 28.8572L142.771 18.4972H148.455Z" fill="white"/>
</svg>
